<svg xmlns="http://www.w3.org/2000/svg" viewBox="0 0 32 32">
    <path d="M20.229 24.343l-10.286-6.171c-0.914-0.571-1.486-1.371-1.486-2.171s0.571-1.714 1.486-2.171l10.286-6.171c0.914-0.571 1.829-0.686 2.629-0.229 0.686 0.457 1.143 1.257 1.143 2.286v12.571c0 1.029-0.457 1.943-1.143 2.286-0.343 0.229-0.686 0.229-1.029 0.229-0.457 0.114-1.029-0.114-1.6-0.457zM21.143 9.143l-10.286 6.171c-0.343 0.229-0.571 0.457-0.571 0.686s0.229 0.571 0.571 0.686l10.286 6.171c0.457 0.229 0.686 0.229 0.914 0.229 0.229-0.114 0.229-0.457 0.229-0.8v-12.571c0-0.457-0.114-0.686-0.229-0.8 0 0-0.114 0-0.229 0-0.229-0.114-0.457 0-0.686 0.229z"></path>
    <path d="M8.229 7.771v16.571c0 0.457 0.343 0.914 0.914 0.914v0c0.457 0 0.914-0.343 0.914-0.914v-16.571c0-0.457-0.343-0.914-0.914-0.914v0c-0.457 0-0.914 0.343-0.914 0.914z"></path>
</svg>