<svg id="图层_1" data-name="图层 1" xmlns="http://www.w3.org/2000/svg" viewBox="0 0 28.27823 28.27823">
    <defs>
        <style>.cls-1{fill:#fff;stroke:#000;stroke-miterlimit:10;stroke-width:0.75px;}</style>
    </defs>
    <circle class="cls-1" cx="14.13911" cy="14.13911" r="13.76411"/>
    <path d="M14.04053,19.25l-.02344-.63965a6.39934,6.39934,0,0,1,.58057-2.8789A10.68577,10.68577,0,0,1,16.292,13.54a6.54533,6.54533,0,0,0,1.14844-1.52246,2.98442,2.98442,0,0,0,.27344-1.27344,3.17009,3.17009,0,0,0-.832-2.21533A2.52253,2.52253,0,0,0,14.9707,7.6167a2.43581,2.43581,0,0,0-1.86963.83838,4.78292,4.78292,0,0,0-.99169,2.668l-1.78858-.24854a6.11568,6.11568,0,0,1,1.48682-3.76123,4.22879,4.22879,0,0,1,3.15722-1.25A4.33854,4.33854,0,0,1,18.20508,7.1958,4.68016,4.68016,0,0,1,19.502,10.60205a5.03921,5.03921,0,0,1-.42578,2.085,9.761,9.761,0,0,1-1.70605,2.3457,6.84121,6.84121,0,0,0-1.35645,1.854A7.68081,7.68081,0,0,0,15.71094,19.25Zm-.11817,4.27637V21.09766H15.9126v2.42871Z"
          transform="translate(-0.86089 -0.86089)"/>
</svg>